<mxfile host="app.diagrams.net" modified="2022-05-22T03:28:10.927Z" agent="5.0 (Macintosh; Intel Mac OS X 10_15_7) AppleWebKit/537.36 (KHTML, like Gecko) Chrome/101.0.4951.64 Safari/537.36" etag="35aanwMRCsUXmFXKJXWQ" version="18.1.1" type="github">
  <diagram id="ws5vTzjlmWk1vMTsphJy" name="Page-1">
    <mxGraphModel dx="945" dy="488" grid="1" gridSize="10" guides="1" tooltips="1" connect="1" arrows="1" fold="1" page="1" pageScale="1" pageWidth="827" pageHeight="1169" math="0" shadow="0">
      <root>
        <mxCell id="0" />
        <mxCell id="1" parent="0" />
        <mxCell id="W4Fkp-xQqQzw6w-8_JB7-3" style="edgeStyle=orthogonalEdgeStyle;rounded=0;orthogonalLoop=1;jettySize=auto;html=1;exitX=1;exitY=0.5;exitDx=0;exitDy=0;entryX=0;entryY=0.5;entryDx=0;entryDy=0;fontStyle=1" edge="1" parent="1" source="W4Fkp-xQqQzw6w-8_JB7-1" target="W4Fkp-xQqQzw6w-8_JB7-2">
          <mxGeometry relative="1" as="geometry" />
        </mxCell>
        <mxCell id="W4Fkp-xQqQzw6w-8_JB7-1" value="一覧画面" style="rounded=0;whiteSpace=wrap;html=1;" vertex="1" parent="1">
          <mxGeometry x="80" y="60" width="120" height="60" as="geometry" />
        </mxCell>
        <mxCell id="W4Fkp-xQqQzw6w-8_JB7-2" value="詳細画面" style="rounded=0;whiteSpace=wrap;html=1;" vertex="1" parent="1">
          <mxGeometry x="560" y="60" width="120" height="60" as="geometry" />
        </mxCell>
      </root>
    </mxGraphModel>
  </diagram>
</mxfile>
